<?xml version="1.0" encoding="UTF-8"?>
<svg id="dc_full" xmlns="http://www.w3.org/2000/svg" viewBox="0 0 1004.882 549.772">
  <defs>
    <style>
      .cls-1 {
        fill: #d34040;
      }

      .cls-2 {
        fill: #f4f4f4;
      }
    </style>
  </defs>
  <g id="light">
    <g>
      <path class="cls-2" d="M413.886,85.411c13.832,7.336,24.539,17.625,32.125,30.875,7.582,13.25,11.375,28.543,11.375,45.875,0,17.168-3.793,32.418-11.375,45.75-7.586,13.336-18.336,23.668-32.25,31-13.918,7.336-30.043,11-48.375,11h-65.75V74.411h65.75c18.5,0,34.664,3.668,48.5,11ZM400.386,199.661c9-8.832,13.5-21.332,13.5-37.5s-4.5-28.75-13.5-37.75-21.586-13.5-37.75-13.5h-20.25v102h20.25c16.164,0,28.75-4.414,37.75-13.25Z"/>
      <path class="cls-2" d="M590.633,218.911h-65.5l-10.5,31h-44.75l63.5-175.5h49.5l63.5,175.5h-45.25l-10.5-31ZM579.633,185.911l-21.75-64.25-21.5,64.25h43.25Z"/>
      <path class="cls-2" d="M755.134,249.911l-36.5-66.25h-10.25v66.25h-42.75V74.411h71.75c13.832,0,25.625,2.418,35.375,7.25,9.75,4.836,17.039,11.461,21.875,19.875,4.832,8.418,7.25,17.793,7.25,28.125,0,11.668-3.293,22.086-9.875,31.25-6.586,9.168-16.293,15.668-29.125,19.5l40.5,69.5h-48.25ZM708.384,153.411h26.5c7.832,0,13.707-1.914,17.625-5.75,3.914-3.832,5.875-9.25,5.875-16.25,0-6.664-1.961-11.914-5.875-15.75-3.918-3.832-9.793-5.75-17.625-5.75h-26.5v43.5Z"/>
      <path class="cls-2" d="M954.882,74.411v34.25h-46.5v141.25h-42.75V108.661h-46.5v-34.25h135.75Z"/>
    </g>
    <path class="cls-2" d="M265.002,60h-.002v.009l.014,24.993c-.02.029-.065.031-.086.032-100.893,5.274-179.926,88.616-179.928,189.735,0,50.897,19.723,98.65,55.538,134.465,35.815,35.815,83.569,55.538,134.465,55.538,101.119-.001,184.461-79.035,189.735-179.928.001-.021.003-.065,0-.072l25.034-.004c-2.529,55.301-25.993,106.898-66.07,145.287-40.201,38.508-93.01,59.716-148.701,59.717h0c-28.944,0-57.052-5.697-83.544-16.932-25.59-10.853-48.592-26.383-68.367-46.158-19.775-19.775-35.305-42.778-46.158-68.368-11.235-26.492-16.932-54.601-16.931-83.545,0-55.689,21.209-108.498,59.717-148.699,38.389-40.077,89.987-63.541,145.285-66.07M265.011,50c-.154,0-.308.004-.464.011-119.411,5.461-214.546,103.999-214.547,224.758-.002,123.954,101.049,225.003,225,225.003.008,0-.004,0,.003,0,120.759-.002,219.298-95.137,224.758-214.547.26-5.694-4.299-10.453-9.999-10.453h-25.024c-5.348,0-9.708,4.21-9.987,9.55-4.965,94.971-83.542,170.448-179.748,170.45-99.712.001-180.004-80.29-180.003-180.002.001-96.207,75.479-174.784,170.45-179.748,5.34-.279,9.55-4.639,9.55-9.987v-25.024c0-5.544-4.503-10.009-9.989-10.01h0Z"/>
    <g>
      <g>
        <path class="cls-2" d="M272.214,195.157c-3.437.12-6.819.462-10.134,1.006-1.436.236-2.397,1.606-2.113,3.033l9.679,48.661c.262,1.317,1.493,2.175,2.829,2.04.016-.002.032-.003.048-.005,1.331-.132,2.363-1.213,2.363-2.551v-49.623c0-1.457-1.216-2.612-2.672-2.561Z"/>
        <path class="cls-2" d="M274.886,177.587v-60.252c0-1.423-1.162-2.587-2.585-2.564-8.803.141-17.488,1.01-25.985,2.56-1.4.255-2.311,1.622-2.033,3.018l11.755,59.097c.273,1.372,1.594,2.252,2.974,2.016,4.358-.745,8.816-1.193,13.353-1.318,1.398-.039,2.521-1.159,2.521-2.557Z"/>
      </g>
      <g>
        <path class="cls-2" d="M210.956,231.979l41.229,27.548c1.114.744,2.589.485,3.436-.553,1.073-1.316,2.274-2.513,3.58-3.578,1.039-.847,1.3-2.324.555-3.439l-27.549-41.23c-.809-1.211-2.461-1.497-3.644-.646-7.025,5.057-13.196,11.228-18.254,18.254-.851,1.182-.565,2.834.646,3.644Z"/>
        <path class="cls-2" d="M221.024,193.992l-33.48-50.106c-.791-1.183-2.404-1.505-3.575-.695-16.322,11.285-29.902,25.09-40.579,40.534-.81,1.171-.487,2.784.697,3.575l50.132,33.497c1.162.777,2.717.466,3.526-.674,6.206-8.747,13.857-16.399,22.604-22.604,1.14-.809,1.451-2.364.674-3.526Z"/>
      </g>
      <g>
        <path class="cls-2" d="M248.09,269.419l-48.666-9.68c-1.427-.284-2.797.678-3.033,2.113-.692,4.206-1.057,8.521-1.057,12.92s.366,8.713,1.057,12.919c.236,1.436,1.606,2.397,3.033,2.113l48.662-9.679c1.316-.262,2.175-1.492,2.039-2.828-.168-1.657-.172-3.35.003-5.059.137-1.332-.724-2.559-2.038-2.82Z"/>
        <path class="cls-2" d="M180.334,274.772c0-5.468.47-10.829,1.366-16.045.233-1.357-.675-2.648-2.025-2.916l-59.064-11.749c-1.396-.278-2.764.636-3.019,2.036-3.562,19.521-3.403,38.885-.032,57.356.256,1.401,1.624,2.313,3.021,2.035l59.095-11.755c1.35-.269,2.258-1.559,2.025-2.916-.896-5.217-1.366-10.577-1.366-16.045Z"/>
      </g>
      <g>
        <path class="cls-2" d="M232.207,338.816l27.548-41.229c.744-1.114.485-2.589-.553-3.436-1.316-1.073-2.514-2.274-3.578-3.58-.847-1.039-2.324-1.3-3.439-.555l-41.23,27.549c-1.211.809-1.497,2.461-.646,3.644,5.057,7.025,11.228,13.196,18.254,18.254,1.182.851,2.834.565,3.644-.646Z"/>
        <path class="cls-2" d="M194.22,328.748l-50.106,33.479c-1.183.791-1.505,2.404-.695,3.575,11.285,16.322,25.09,29.902,40.534,40.579,1.171.81,2.784.487,3.575-.697l33.497-50.132c.777-1.162.466-2.717-.674-3.526-8.747-6.206-16.399-13.857-22.605-22.604-.809-1.14-2.364-1.451-3.526-.674Z"/>
      </g>
      <g>
        <path class="cls-2" d="M290.033,350.349l-9.679-48.661c-.262-1.316-1.492-2.175-2.828-2.039-2.412.245-4.901.142-7.403-.356h0s-10.156,51.057-10.156,51.057c-.284,1.427.678,2.797,2.113,3.033,4.206.692,8.521,1.057,12.92,1.057s8.713-.366,12.92-1.057c1.436-.236,2.397-1.606,2.113-3.033Z"/>
        <path class="cls-2" d="M275,369.438c-5.468,0-10.828-.47-16.045-1.366-1.357-.233-2.648.675-2.916,2.025l-11.749,59.065c-.278,1.396.636,2.764,2.036,3.019,19.521,3.562,38.885,3.403,57.356.032,1.401-.256,2.313-1.624,2.035-3.021l-11.755-59.095c-.269-1.35-1.559-2.258-2.916-2.025-5.217.896-10.577,1.366-16.045,1.366Z"/>
      </g>
      <g>
        <path class="cls-2" d="M339.044,317.565l-41.229-27.549c-1.114-.744-2.589-.485-3.436.553-1.073,1.316-2.274,2.514-3.58,3.578-1.039.847-1.3,2.324-.555,3.439l27.549,41.23c.809,1.211,2.461,1.497,3.644.646,7.026-5.057,13.197-11.228,18.254-18.254.851-1.182.565-2.834-.646-3.644Z"/>
        <path class="cls-2" d="M352.255,329.422c-6.206,8.747-13.857,16.399-22.604,22.604-1.14.809-1.451,2.364-.674,3.526l33.479,50.106c.791,1.183,2.404,1.505,3.575.695,16.322-11.285,29.902-25.09,40.579-40.534.81-1.171.487-2.784-.697-3.575l-50.131-33.497c-1.162-.777-2.717-.466-3.526.674Z"/>
      </g>
      <g>
        <path class="cls-2" d="M301.91,280.125l48.666,9.68c1.427.284,2.797-.678,3.033-2.113.551-3.353.895-6.774,1.012-10.253l-2.561-2.67h-49.621c-1.341,0-2.424,1.037-2.551,2.372-.005.054-.01.108-.016.162-.136,1.333.724,2.561,2.038,2.822Z"/>
        <path class="cls-2" d="M369.666,274.769s0,.002,0,.003c0,5.468-.47,10.828-1.366,16.045-.233,1.357.675,2.648,2.025,2.916l59.064,11.749c1.396.278,2.764-.636,3.019-2.036,1.596-8.751,2.442-17.471,2.588-26.092.024-1.424-1.139-2.585-2.563-2.585h-62.768Z"/>
      </g>
    </g>
    <circle class="cls-1" cx="275" cy="274.772" r="12.5"/>
    <g>
      <path class="cls-1" d="M742.884,288.083c2.266-4.233,5.415-7.516,9.45-9.85,4.032-2.333,8.649-3.5,13.85-3.5,6.732,0,12.283,1.635,16.65,4.9,4.365,3.267,7.25,7.8,8.649,13.6h-9.8c-.935-3.333-2.75-5.965-5.45-7.9-2.7-1.933-6.049-2.9-10.049-2.9-5.2,0-9.4,1.784-12.6,5.35-3.2,3.567-4.801,8.617-4.801,15.15,0,6.6,1.601,11.7,4.801,15.3,3.199,3.6,7.399,5.4,12.6,5.4,4,0,7.333-.933,10-2.8,2.666-1.866,4.5-4.533,5.5-8h9.8c-1.467,5.6-4.399,10.084-8.8,13.45-4.4,3.367-9.9,5.05-16.5,5.05-5.2,0-9.817-1.166-13.85-3.5-4.035-2.333-7.185-5.633-9.45-9.9-2.268-4.266-3.4-9.266-3.4-15,0-5.666,1.133-10.616,3.4-14.85Z"/>
      <path class="cls-1" d="M813.533,327.833c-4.168-2.333-7.435-5.65-9.801-9.95-2.367-4.3-3.55-9.283-3.55-14.95,0-5.6,1.216-10.55,3.65-14.85,2.433-4.3,5.75-7.6,9.95-9.9,4.199-2.3,8.899-3.45,14.1-3.45s9.9,1.15,14.1,3.45c4.2,2.3,7.516,5.584,9.95,9.85,2.433,4.267,3.65,9.234,3.65,14.9s-1.25,10.65-3.75,14.95c-2.5,4.3-5.885,7.617-10.15,9.95-4.267,2.334-9,3.5-14.2,3.5-5.134,0-9.784-1.166-13.949-3.5ZM836.683,321.033c2.866-1.533,5.183-3.833,6.95-6.9,1.766-3.066,2.65-6.8,2.65-11.2s-.867-8.133-2.601-11.2c-1.734-3.065-4-5.35-6.8-6.85s-5.834-2.25-9.1-2.25c-3.335,0-6.385.75-9.15,2.25-2.768,1.5-4.984,3.784-6.65,6.85-1.667,3.067-2.5,6.8-2.5,11.2,0,4.467.816,8.234,2.45,11.3,1.633,3.067,3.815,5.35,6.55,6.85,2.733,1.5,5.733,2.25,9,2.25s6.333-.766,9.2-2.3Z"/>
      <path class="cls-1" d="M883.533,277.233c2.965-1.732,6.582-2.6,10.85-2.6v9.4h-2.4c-10.199,0-15.3,5.534-15.3,16.6v29.8h-9.1v-54.8h9.1v8.9c1.601-3.133,3.883-5.566,6.851-7.3Z"/>
      <path class="cls-1" d="M954.582,306.433h-43.801c.333,5.4,2.184,9.617,5.551,12.65,3.365,3.035,7.449,4.55,12.25,4.55,3.933,0,7.215-.916,9.85-2.75,2.633-1.833,4.482-4.283,5.55-7.35h9.8c-1.467,5.267-4.399,9.55-8.8,12.85-4.399,3.3-9.867,4.95-16.399,4.95-5.2,0-9.851-1.166-13.95-3.5-4.101-2.333-7.317-5.65-9.65-9.95-2.334-4.3-3.5-9.283-3.5-14.95s1.133-10.633,3.4-14.9c2.266-4.266,5.45-7.55,9.55-9.85s8.815-3.45,14.15-3.45c5.199,0,9.8,1.135,13.8,3.4,4,2.267,7.083,5.384,9.25,9.35,2.165,3.967,3.25,8.45,3.25,13.45,0,1.734-.101,3.567-.3,5.5ZM943.182,290.083c-1.534-2.5-3.617-4.4-6.25-5.7-2.635-1.3-5.55-1.95-8.75-1.95-4.6,0-8.518,1.467-11.75,4.4-3.234,2.935-5.084,7-5.55,12.2h34.6c0-3.466-.767-6.45-2.3-8.95Z"/>
    </g>
  </g>
</svg>