<?xml version="1.0" encoding="UTF-8"?>
<svg id="Darts" xmlns="http://www.w3.org/2000/svg" viewBox="0 0 988.889 809.722">
  <defs>
    <style>
      .cls-1 {
        fill: #f5f5f5;
      }
    </style>
  </defs>
  <g id="darts">
    <g id="arrows">
      <path class="cls-1" d="M321.78,742.348l25.718-11.79c1.241-.847,4.309.262,4.26,1.289-.075,1.571-26.816,13.817-28.337,13.411-1.165-.311-1.922-1.681-1.641-2.909Z"/>
      <g>
        <g>
          <path class="cls-1" d="M400.908,661.286c1.001.654,6.147-.147,8.293.209,10.134,1.68,28.358,4.567,37.592,7.397,1.203.369,11.173,4.932,11.542,5.452,3.676,5.176-8.178,5.253-11.046,5.032-12.163-.937-31.985-4.12-43.922-7.057-1.42-.349-3.223-2.062-4.015-1.89-.637.139-2.97,4.158-4.63,5.416-9.901,7.5-42.604,2.395-55.17.28-13.009-2.19-51.231-9.189-60.536-15.449-1.781-1.198-2.441-3.413-3.95-4.046l-69.675-14.915c-9.742,6.19-19.311,14.774-29.087,20.725-7.346,4.472-14.17,7.765-23.021,6.953-4.7-.432-12.54-2.337-17.736-3.254-7.461-1.317-35.286-5.022-34.78-15.122.362-7.214,17.557-21.797,21.989-28.067.007-1.457-12.739-3.458-14.793-4.182-6.464-2.277-29.705-15.401-16.675-22.295l35.491,4.006c-.091-7.197-.581-14.287-1.03-21.458-.547-8.724-5.518-18.62,7.641-20.375,3.455-.461,20.297,2.333,24.61,3.142,6.597,1.236,23.955,4.637,28.817,8.175,5.917,4.306,18.713,30.685,22.388,38.574,1.153,2.475-.346,4.6,2.825,6.169,5.427,2.684,11.037,1.86,16.163,2.825,23.922,4.502,39.507,9.393,64.083,7.402,6.579-.533,60.531,10.46,69.521,12.984,7.402,2.078,32.091,12.145,36.54,17.44,1.412,1.68,2.299,5.753,2.569,5.93ZM201.175,613.128c-5.354-12.451-10.316-24.289-17.836-35.692-16.375-6.368-34.09-8.538-51.566-9.932l2.944,33.527c5.48-.122,10.791,2.288,15.69,3.123,1.383.236,3.322-.939,5.602-.502,6.413,1.229,44.647,14.8,46.763,12.802,1.726-1.629-1.526-3.156-1.599-3.326ZM212.958,624.612c-.434.27-.429,2.22-1.802,2.71-5.892,2.104-39.619-11.304-48.335-13.405-19.483-4.695-41.273-4.773-61.042-8.438,1.486,2.373,5.274,3.843,7.806,4.743,23.858,8.483,55.828,14.346,80.958,19.958,27.951,6.242,56.351,11.23,84.234,17.253-1.57-2.959,2.234-10.117,1.963-11.428-.543-2.633-20.543-3.021-24.381-3.644-5.378-.872-11.954-3.271-17.335-4.663-2.923.439-21.12-3.675-22.066-3.087ZM194.773,638.443c-7.118.117-13.917-3.114-20.792-4.704-13.833-3.2-28.347-4.34-41.721-9.05l-23.465,25.237c-.011,4.046,43.316,9.915,49.323,12.145,2.109-.296,4.07-.919,6.001-1.819,6.212-2.897,20.074-12.59,25.973-17.003.736-.551,6.164-3.69,4.681-4.807ZM299.772,658.414c-1.073-8.007-.529-15.773,5.986-21.474-11.386-5.49-22.749-3.992-22.968,10.994-.12,8.231,10.622,9.032,16.982,10.48ZM332.773,641.44c-4.753,1.001-17.768-4.532-21.013-2.518-4.785,2.97-4.267,15.389-3.884,20.399l21.901,5.081c-1.306-3.916-1.572-10.295-.936-14.411.544-3.519,3.348-5.32,3.931-8.551ZM354.778,668.409v-14.486c0-1.919,4.929-6.6,3.995-7.487-4.769-.58-9.496-1.504-14.252-2.258-1.178-.187-2.543-1.511-3.253-1.466-5.397.335-10.012,22.713,1.056,24.652,3.738.655,8.433-.399,12.453,1.046ZM391.477,660.699c-1.974-2.371-22.321-11.017-25.395-11.08-6.124-.127-5.286,19.778.196,20.788,1.794.331,19.71.096,21.529-.466,3.946-1.22,6.69-5.616,3.671-9.241Z"/>
          <path class="cls-1" d="M241.773,657.425c1.433,1.241-1.727,2.636-2.45,3.037-5.763,3.194-23.964,10.713-30.105,11.883-3.226.615-7.366.701-4.856-3.028,5.463.66,35.179-13.824,37.411-11.892Z"/>
          <path class="cls-1" d="M213.773,654.428c.51,2.576-.544,1.747-1.946,2.501-6.236,3.352-22.445,9.436-29.249,10.803-1.736.349-3.115-.235-4.8-.331-1.762-1.604,5.208-4.153,6.023-4.47,8.997-3.495,20.583-6.155,29.973-8.504Z"/>
        </g>
        <g>
          <path class="cls-1" d="M341.786,702.369c-.186.182-.365,3.133-1.548,4.965-6.455,9.998-19.56,11.833-30.275,13.709-19.11,3.346-38.487,4.904-57.609,7.384-7.373.956-15.472,4.783-23.581,3.503-5.017-.792-9.439-4.758-13.455-4.639-3.778.112-10.272,2.51-14.12,2.984-13.334,1.643-25.822,2.826-38.974,5.014-3.068.51-6.869-.595-9.741.259-4.435,1.319-26.257,31.858-34.207,37.756-10.728,7.96-35.517,10.436-48.821,10.595-5.814.069-25.6-.014-27.464-6.305-2.537-8.564,7.738-24.151,10.781-32.255-9.076,1.042-25.772,6.311-34.293,3.789-8.626-2.553,4.14-15.035,7.34-17.24,3.178-2.19,23.977-7.655,23.939-9.033-7.354-7.797-13.618-16.256-20.458-24.492-4.752-10.163,15.844-15.139,22.667-17.278,11.641-3.648,30.35-8.473,42.35-7.713,8.424.534,26.978,12.205,34.768,17.206,3.409,2.189,18.549,14.342,20.181,14.684,2.765.581,13.608-2.417,17.097-2.812,18.474-2.091,43.072-.822,57.074-13.894,30.045-3.463,78.999-15.355,107.229-1.557,2.181,1.066,9.984,7.013,10.621,7.033.845.027,1.984-1.223,3.132-1.291,19.641-1.157,38.981-3.19,58.695-2.248,3.131,1.672,1.14,3.221-.845,4.878-6.9,5.761-43.502,7.621-54.046,8.04-1.938.077-6.204-1.273-6.437-1.046ZM137.775,708.363c1.42-1.589-7.226-6.896-8.667-7.815-5.929-3.781-28.155-17.621-33.313-18.647-6.344-1.262-25.24,3.119-32.224,4.783-8.953,2.133-17.85,5.493-26.795,7.709-1.086,1.196,5.804,8.986,7.029,10.454,6.122,7.337,13.075,14.321,19.61,21.31l74.361-17.794ZM300.417,690.758c-4.139-2.2-9.17-1.157-13.634-1.365,3.176,8.232,6.108,16.397,1.995,24.96.56.411,12.058-1.388,13.515-1.973,6.666-2.674,4.323-18.328-1.876-21.623ZM258.782,719.354c5.674-1.277,15.274-.454,20.321-2.167,6.78-2.302,5.661-22.83-2.37-26.337-3.227-1.409-16.53,2.609-20.946,1.537-.505.919,3.054,6.104,3.665,7.813,2.433,6.8,2.098,12.523-.67,19.154ZM334.6,704.194c4.737-8.133-19.361-13.086-23.813-13.806,3.321,6.877,4.122,13.506,1.993,20.972,1.674,1.44,20.863-5.524,21.819-7.166ZM252.536,719.121c.751-1.314,2.06-11.11,1.66-13.19-2.508-13.052-7.559-12.218-18.776-10.406-1.657.268-8.642.971-8.623,2.356,7.446,6.593,9.62,16.954,3.981,25.465,3.884.241,20.05-1.236,21.758-4.224ZM153.783,727.355c9.964-1.363,19.822-3.4,29.796-4.693,5.272-.683,11.197-.675,16.574-1.43,5.611-.787,18.283-2.096,22.864-4.127,5.827-2.584-.023-13.879-4.605-13.702-7.485,1.494-15.761,3.795-23.235,4.866-31.189,4.466-56.32,7.566-87.374,14.609-11.943,2.709-29.779,5.139-40.658,9.382-1.426.556-2.918-.969-2.362,2.079,9.469.167,18.961-.972,28.374-2.114,17.512-2.124,36.725-6.479,54.133-7.853,3.556-.281,7.599-1.25,6.493,2.982ZM56.681,730.449c-1.544-1.371-30.552,6.271-31.902,11.878,6.95-.911,13.778-2.671,20.666-3.914,3.196-.577,9.451.965,11.907-3.064.449-.737-.473-4.724-.671-4.899ZM143.778,733.355c-5.885.166-11.832,2.349-17.57,3.01-3.123.36-6.822-.381-10.769.137-16.837,2.211-33.984,7.81-51.073,5.006-2.003.473-15.943,30.257-15.523,32.227.306,1.435,3.488,1.89,4.787,2,12.905,1.091,42.762-1.534,54.836-6.237,12.135-4.727,21.43-22.252,30.318-31.651,1.526-1.614,4.166-2.244,4.994-4.492Z"/>
          <path class="cls-1" d="M219.773,739.345c.361,1.802-.888,2.486-2.058,3.429-6.298,5.077-22.73,14.693-30.269,18.713-3.602,1.921-6.708,4.699-9.663.326,5.576-2.631,38.445-25.636,41.99-22.468Z"/>
          <path class="cls-1" d="M270.898,748.441c.708-1.227,21.979-12.314,24.879-13.597,2.432-1.076,11.711-4.883,13.713-5.3,1.385-.288,4.282-.138,4.267,1.304-.024,2.333-36.923,17.903-41.486,21.455-1.268-.821-2.133-2.544-1.373-3.862Z"/>
          <path class="cls-1" d="M190.775,741.324c-.128.172-2.867.748-4.032,1.469-6.207,3.84-12.713,7.221-18.881,11.118-4.014,2.536-15.071,12.143-18.638,12.386-1.212.083-3.442-.411-3.426-1.482.028-1.873,27.288-18.986,31.104-20.855,1.664-.815,11.704-5.633,12.382-5.595.642.037,2.035,2.228,1.491,2.959Z"/>
          <path class="cls-1" d="M260.773,735.349c.431,2.058-1.023,2.314-2.304,3.183-7.349,4.983-19.335,10.54-27.581,15.404-2.258,1.332-3.474,4.164-6.671,4.366-1.207.076-3.427-.397-3.42-1.479.017-2.289,37.013-24.023,39.975-21.474Z"/>
        </g>
      </g>
    </g>
    <g id="board">
      <path class="cls-1" d="M892.77,670.386c-.257.388-7.512,1.963-8.972,2.538-18.703,7.373-36.446,17.294-53.989,27.007-9.34.29.54-6.274,3.664-8.35,7.7-5.116,19.74-10.872,28.32-14.666,5.852-2.588,22.313-9.801,27.765-10.319,2.666-.254,4.372,2.039,3.212,3.79Z"/>
      <path class="cls-1" d="M916.777,675.407c.109.112.399,2.812-.62,3.064-6.998,2.643-13.814,5.874-20.4,9.397-4.885,2.613-11.513,8.22-16.019,9.978-1.524.595-3.61.714-3.954-.98-.516-2.542,15.231-11.508,17.973-12.994,3.202-1.735,20.675-10.863,23.021-8.465Z"/>
      <path class="cls-1" d="M934.541,684.551c2.194-.209,2.862.777,4.217,2.34-.019,1.158-18.968,10.552-20.48,10.579-1.584.029-2.568-.277-3.494-1.603-.481-2.249,17.412-11.093,19.758-11.316Z"/>
      <path class="cls-1" d="M905.437,81.324c3.798,2.929,12.941,15.324,15.753,19.727,59.251,92.798,34.681,245.808-.376,344.112-32.913,92.292-105.347,216.052-200.507,255.244-36.457,15.015-107.733,8.449-145.753-2.303-51.844-14.661-85.185-64.657-100.062-113.827-49.753-164.439,22.359-385.89,149.788-498.297,29.504-26.026,66.159-47.817,105.134-54.812,25.234-4.529,41.06-7.081,66.419-.69,20.265,5.107,44.79,17.402,63.946,26.028,14.176,6.384,33.378,15.348,45.659,24.818ZM534.152,664.028c73.921,63.518,166.44,4.522,220.139-54.548,78.617-86.48,127.469-204.305,140.341-320.339,9.066-81.726,1.15-222.454-97.85-247.625-38.892-9.888-83.124-.593-118.025,17.967-128.288,68.22-207.159,254.199-212.007,393.586-2.393,68.815,12.493,163.778,67.402,210.959ZM631.784,698.368c35.112,4.855,70.027,3.203,101.665-13.804,107.017-57.527,181.8-217.545,203.053-332.622,13.55-73.37,18.437-174.501-20.205-241.007-11.63-20.016-24.095-28.135-44.01-38.952-5.893-3.201-12.339-5.344-18.015-8.976-1.653,1.081.325,2.212,1.069,2.968,66.979,68.035,56.896,209.187,35.973,294.77-32.33,132.246-112.686,286.934-248.501,335.171l-11.028,2.452Z"/>
      <path class="cls-1" d="M826.775,655.426c.516.513.038,2.705-1.018,3.471-1.654,1.199-10.313,3.223-13.357,4.638-24.995,11.623-48.995,25.918-73.573,38.399-9.204.699,1.979-6.047,5.031-7.971,16.576-10.449,39.766-23.372,57.563-31.407,3.727-1.683,22.842-9.628,25.354-7.131Z"/>
      <path class="cls-1" d="M862.771,660.42c.303,2.221-1.695,3.275-3.296,4.19-16.531,9.436-38.309,16.182-55.732,25.244-3.729,1.94-25.477,16.946-27.961,14.515-.253-1.511.11-2.34.934-3.552,1.646-2.42,21.064-13.78,25.039-15.945,18.692-10.178,40.239-19.775,61.015-24.451Z"/>
      <path class="cls-1" d="M799.443,122.275c19.321,15.849,36.506,51.689,42.838,75.589,34.826,131.456-42.142,335.651-159.588,407.022-78.416,47.653-147.852,4.589-170.199-77.556-34.516-126.873,26.176-320.849,135.35-397.829,43.63-30.763,107.078-43.746,151.599-7.226ZM736.767,204.858l39.877-84.434c-.207-2.898-23.669-8.771-27.489-9.348-9.294-1.405-21.493-1.052-30.851-.088-3.1.319-6.229,1.169-9.317,1.628l-17.21,87.241c15.056-2.778,30.809-.566,44.988,5.002ZM702.773,113.956c-28.053,6.206-52.651,22.744-73.518,41.988l9.528,71.891,23.323-16.151c7.875-4.644,15.949-7.73,24.41-11.079l16.257-86.648ZM782.269,122.967l-41.503,83.441c.06,2.095,6.138,5.181,8.023,6.933,10.313,9.589,16.149,20.583,21.489,33.46l59.481-60.395c-10.231-24.685-23.006-50.421-47.49-63.44ZM624.773,160.909c-1.926-.471-1.925.705-2.81,1.678-16.127,17.739-31.836,35.995-44.604,56.34-5.791,9.227-10.409,19.437-16.442,28.563l34.376,36.289c2.158.492,8.148-12.035,9.66-14.308,8.557-12.863,18.563-25.996,29.861-36.347l-10.04-72.217ZM832.773,193.877l-2.999,1.49c-18.524,18.04-35.823,37.564-54.461,55.502-1.036.997-2.062,1.68-3.445,2.081,6.896,22.252,10.962,46.738,5.911,69.786l62.863-18.608c2.798-28.011,2.787-53.969-2.007-81.641-1.67-9.642-4.28-18.98-5.862-28.611ZM731.779,213.869c-13.002-5.974-27.866-7.115-41.815-3.823l-18.193,103.71,10.99,1.99,49.018-101.877ZM684.773,210.861c-16.766,5.096-31.079,14.931-43.883,26.62l13.893,83.263c.527.64,12.411-7.157,12.543-8.939l17.447-100.944ZM692.759,328.733l69.874-73.643c1.929-7.124-16.99-39.024-27.768-38.166-14.234,35.196-33.621,68.108-50.014,102.351,4.234,1.87,4.274,5.614,5.93,8.814.541,1.046,1.565.985,1.978.644ZM644.767,335.732c-.779-3.662,6.691-9.742,6.574-12.05-4.805-25.656-9.465-51.321-13.872-77.054-.21-1.228-.192-4.839-1.678-4.796-2.743,4.971-7.632,10.105-12.039,13.723l-21.825,34.576,42.84,45.6ZM591.217,289.385c-10.217-13.076-23.557-23.127-33.429-36.569-8.124,17.747-16.553,35.79-23.027,54.429-5.634,16.221-9.602,32.875-13.983,49.458l47.754-1.232c6.566-22.009,12.88-44.224,24.137-64.392l-.054-1.139c-.42-.194-1.151-.239-1.398-.555ZM769.537,324.499c4.325-21.146,1.028-42.971-4.255-63.688-2.07,2.674-5.203,4.11-7.552,6.442-18.859,18.723-36.963,38.822-55.303,58.14-2.786,2.934-8.29,5.192-8.732,9.813-.353,3.688,1.773,6.874.085,10.51l75.757-21.217ZM608.393,307.136c-1.113-1.152-10.011-10.809-10.603-10.362-8.836,19.247-16.514,39.163-21.005,59.936l58.88-1.115c-.117-3.49,6.264-13.427,4.927-15.691-8.449-5.448-14.897-13.63-21.785-20.903-3.291-3.475-6.851-8.176-10.414-11.864ZM839.772,311.761l-61.489,16.984c-4.213,25.993-9.519,51.897-20.503,75.906l50.983,25.988c14.82-38.297,27.149-77.74,31.01-118.878ZM657.133,330.094c-8.991,9.322-17.665,33.218-16.25,45.995,2.44,22.026,19.351,20.52,31.886,7.09,9.87-10.574,17.369-37.824,11.037-50.969-6.278-13.032-17.564-11.56-26.673-2.116ZM689.851,368.609l60.434,32.038c10.484-21.743,15.773-45.925,18.484-69.908l-74.008,20.462-4.909,17.409ZM566.775,361.715l-46.899,1.092c-7.206,33.246-9.107,67.724-8.088,101.8l50.448-37.909c-1.142-21.69.763-43.613,4.539-64.984ZM634.777,361.718l-59.837,1.149c-5.053,19.12-5.036,39.097-5.152,58.783,20.621-14.871,39.628-32.05,62.002-44.444l2.987-15.487ZM719.391,391.09c-10.876-5.698-22.015-11.092-33.098-16.411l-6.439,13.506c11.287,25.656,23.102,51.177,32.934,77.421,4.092-4.314,7.96-9.285,11.232-14.242,3.249-4.922,7.632-12.24,10.563-17.42,2.455-4.339,12.79-23.379,13.228-26.85.2-1.584-.411-1.204-1.241-1.761-6.998-4.695-18.14-8.628-25.986-12.753-.704-.37-.883-1.327-1.193-1.489ZM633.771,382.69l-63.497,44.946c-2.727,5.602,6.316,48.123,12.008,50.953,17.195-28.701,36.361-56.195,55.031-83.959.983-2.422-4.265-8.327-3.543-11.941ZM675.77,391.679c-.482-.452-10.686,6.933-10.828,7.578-.222,1.008.928,2.671.875,3.948-.953,22.996.623,46.97,1.006,69.855.176,10.491-.229,21.021-.04,31.504,1.173,1.306,20.414-11.186,22.474-13.003,2.386-2.105,3.482-4.565,5.494-6.499,2.765-2.659,13.775-12.289,14.025-15.027l-33.007-78.356ZM647.711,400.762c-2.738-.516-4.64-2.016-6.433-4.071l-.948,1.027-55.399,85.595c-1.011,6.29,21.306,26.071,28.549,27.085l34.231-109.636ZM661.565,507.362l-1.797-106.691-6.999,2.734-33.01,108.638c6.112,3.766,38.878.351,41.806-4.68ZM804.599,436.814l-48.345-26.019c-10.634,19.662-20.866,38.603-34.04,56.745-1.191,1.64-4.481,3.925-4.971,5.087-1.275,3.023,11.812,27.984,14.038,32.937,4.733,10.529,9.379,21.189,13.51,31.969,2.471,1.83,32.888-46.396,35.159-50.277,7.371-12.593,15.479-27.204,21.541-40.419,1.011-2.205,4.199-8.168,3.108-10.024ZM562.773,433.643l-50.679,38.624c3.199,27.726,7.675,55.811,19.696,81.251,16.093-21.186,30.138-44.078,44.634-66.437-9.562-15.931-12.842-34.996-13.651-53.438ZM737.426,547.174c1.312-1.476,3.473-4.004,3.22-5.893l-28.363-62.682c-13.152,15.091-28.141,27.392-45.343,37.65l.846,86.219c25.933-11.662,47.946-31.828,66.458-53.005.913-1.044,2.422-1.434,3.182-2.289ZM611.773,519.568c-14.27-3.752-24.674-15.128-32.494-26.969l-44.39,65.63c9.543,22.3,27.761,39.348,49.49,50.151l27.394-88.813ZM661.772,517.561c-14.435,5.815-29.708,7.943-44.981,3.985l-25.989,88.879c23.294,9.654,49.124,5.669,71.495-4.935l-.525-87.928Z"/>
      <path class="cls-1" d="M841.773,567.512c1.139,1.086-6.833,8.444-7.981,9.5-20.39,18.759-44.891,38.887-66.539,56.406-21.512,17.41-51.872,41.578-76.471,53.479-5.076,2.456-4.493-1.028-1.945-3.946,4.152-4.754,22.296-13.757,28.862-18.118,41.021-27.243,75.332-63.94,114.574-92.336,1.262-.913,8.51-5.93,9.5-4.985Z"/>
      <path class="cls-1" d="M810.773,615.466c.632.569-2.682,5.962-3.611,6.872-3.782,3.706-13.434,8.982-18.299,12.689-17.229,13.128-37.706,31.382-56.047,41.912-7.113,4.084-4.236-2.377.05-5.944,20.14-16.763,52.583-40.799,74.789-54.399.389-.238,1.618-2.481,3.117-1.13Z"/>
      <path class="cls-1" d="M875.778,509.574c3.267,2.584-43.336,43.286-46.649,46.295-7.113,6.461-18.909,20.238-26.806,24.67-4.554,2.556-5.545,1.375-2.534-2.532,8.642-11.213,28.816-26.603,40.003-36.96,9.204-8.521,19.478-20.421,28.977-27.996,2.01-1.603,4.222-3.749,7.009-3.477Z"/>
      <path class="cls-1" d="M898.772,460.616c2.141,2.247-9.536,11.905-10.992,13.485-10.096,10.952-20.324,22.63-31.008,32.959-1.714,1.657-10.084,9.32-11.989,7.493-.952-.913.769-3.105,1.45-4.036,3.233-4.412,8.34-8.073,12.069-11.919,9.475-9.768,18.981-20.331,28.825-29.646,1.34-1.268,10.462-9.577,11.645-8.337Z"/>
      <path class="cls-1" d="M880.783,418.647c-.736-.67,1.002-3.098,1.63-3.895,4.728-6,10.886-11.256,15.879-17.066,9.613-11.186,17.813-23.904,29.476-32.981.277,3.131-1.976,5.523-3.58,7.902-6.564,9.737-19.725,23.782-27.896,33.071-2.115,2.404-12.693,15.533-15.509,12.968Z"/>
      <path class="cls-1" d="M916.772,409.666c.006,3.404-3.772,7.712-6.019,10.465-7.381,9.047-31.449,36.561-39.951,42.003-1.326.849-1.908,2.009-4.02,1.468l49.99-53.937Z"/>
      <path class="cls-1" d="M930.369,332.331c-5.999,8.158-19.918,26.336-27.546,31.92-4.756,3.481-5.171.642-2.493-3.49,5.795-8.944,18.137-20.871,25.428-29.543.742-.882,10.129-15.564,10.057-6.965-.007.811-4.465,6.745-5.446,8.079Z"/>
      <path class="cls-1" d="M916.119,313.08c-1.11,1.318-1.34,3.714-2.765,4.751-1.032.751-4.007,1.461-4.572.914-1.413-1.368,4.162-8.748,5.179-10.301,2.801-4.281,23.097-30.763,26.323-30.629l1.006,2.979c-8.369,9.46-14.832,20.513-22.679,30.344-.766.96-1.956,1.306-2.492,1.943Z"/>
      <path class="cls-1" d="M941.77,238.835c2.395,4.695-2.351,6.232-4.962,9.514-3.327,4.182-22.11,31.156-25.515,30.435-3.135-2.188-.504-4.769,1.079-6.894,5.723-7.68,13.58-18.124,19.891-25.084,1.203-1.327,8.232-8.94,9.507-7.971Z"/>
      <path class="cls-1" d="M936.773,210.861l-8.022,11.456c-3.371,1.726-17.106,20.775-18.458,20.502-1.674-.338-1.597-2.44-.993-3.962,1.268-3.193,7.964-11.422,10.505-14.488,1.368-1.65,10.679-12.15,11.418-12.569,1.949-1.103,3.387-1.153,5.55-.94Z"/>
      <path class="cls-1" d="M916.482,203.548c-1.896,1.669-4.745,1.727-4.718-1.168.011-1.204,3.97-6.558,5.034-7.989,2.432-3.273,11.731-13.423,14.979-14.806.964-.411,3.083-.796,4.007-.215,1.74,1.282.354,1.439-.505,2.514-3.016,3.778-7.673,7.279-11.015,10.975-2.325,2.571-5.99,9.111-7.782,10.689Z"/>
    </g>
  </g>
</svg>