<?xml version="1.0" encoding="UTF-8"?>
<svg id="Loading" xmlns="http://www.w3.org/2000/svg" viewBox="0 0 550.139 735.417">
  <g id="board">
    <path d="M474.88,81.324c3.798,2.929,12.941,15.324,15.753,19.727,59.251,92.798,34.681,245.808-.376,344.112-32.913,92.292-105.347,216.052-200.507,255.244-36.457,15.015-107.733,8.449-145.753-2.303-51.844-14.661-85.185-64.657-100.062-113.827C-5.818,419.837,66.294,198.386,193.723,85.979c29.504-26.026,66.159-47.817,105.134-54.812,25.234-4.529,41.06-7.081,66.419-.69,20.265,5.107,44.79,17.402,63.946,26.028,14.176,6.384,33.378,15.348,45.659,24.818ZM103.596,664.028c73.921,63.518,166.44,4.522,220.139-54.548,78.617-86.48,127.469-204.305,140.341-320.339,9.066-81.726,1.15-222.454-97.85-247.625-38.892-9.888-83.124-.593-118.025,17.967C119.913,127.703,41.042,313.682,36.194,453.069c-2.393,68.815,12.493,163.778,67.402,210.959ZM201.227,698.368c35.112,4.855,70.027,3.203,101.665-13.804,107.017-57.527,181.8-217.545,203.053-332.622,13.55-73.37,18.437-174.501-20.205-241.007-11.63-20.016-24.095-28.135-44.01-38.952-5.893-3.201-12.339-5.344-18.015-8.976-1.653,1.081.325,2.212,1.069,2.968,66.979,68.035,56.896,209.187,35.973,294.77-32.33,132.246-112.686,286.934-248.501,335.171l-11.028,2.452Z"/>
    <path d="M368.886,122.275c19.321,15.849,36.506,51.689,42.838,75.589,34.826,131.456-42.142,335.651-159.588,407.022-78.416,47.653-147.852,4.589-170.199-77.556-34.516-126.873,26.176-320.849,135.35-397.829,43.63-30.763,107.078-43.746,151.599-7.226ZM306.21,204.858l39.877-84.434c-.207-2.898-23.669-8.771-27.489-9.348-9.294-1.405-21.493-1.052-30.851-.088-3.1.319-6.229,1.169-9.317,1.628l-17.21,87.241c15.056-2.778,30.809-.566,44.988,5.002ZM272.216,113.956c-28.053,6.206-52.651,22.744-73.518,41.988l9.528,71.891,23.323-16.151c7.875-4.644,15.949-7.73,24.41-11.079l16.257-86.648ZM351.712,122.967l-41.503,83.441c.06,2.095,6.138,5.181,8.023,6.933,10.313,9.589,16.149,20.583,21.489,33.46l59.481-60.395c-10.231-24.685-23.006-50.421-47.49-63.44ZM194.216,160.909c-1.926-.471-1.925.705-2.81,1.678-16.127,17.739-31.836,35.995-44.604,56.34-5.791,9.227-10.409,19.437-16.442,28.563l34.376,36.289c2.158.492,8.148-12.035,9.66-14.308,8.557-12.863,18.563-25.996,29.861-36.347l-10.04-72.217ZM402.216,193.877l-2.999,1.49c-18.524,18.04-35.823,37.564-54.461,55.502-1.036.997-2.062,1.68-3.445,2.081,6.896,22.252,10.962,46.738,5.911,69.786l62.863-18.608c2.798-28.011,2.787-53.969-2.007-81.641-1.67-9.642-4.28-18.98-5.862-28.611ZM301.222,213.869c-13.002-5.974-27.866-7.115-41.815-3.823l-18.193,103.71,10.99,1.99,49.018-101.877ZM254.216,210.861c-16.766,5.096-31.079,14.931-43.883,26.62l13.893,83.263c.527.64,12.411-7.157,12.543-8.939l17.447-100.944ZM262.202,328.733l69.874-73.643c1.929-7.124-16.99-39.024-27.768-38.166-14.234,35.196-33.621,68.108-50.014,102.351,4.234,1.87,4.274,5.614,5.93,8.814.541,1.046,1.565.985,1.978.644ZM214.21,335.732c-.779-3.662,6.691-9.742,6.574-12.05-4.805-25.656-9.465-51.321-13.872-77.054-.21-1.228-.192-4.839-1.678-4.796-2.743,4.971-7.632,10.105-12.039,13.723l-21.825,34.576,42.84,45.6ZM160.661,289.385c-10.217-13.076-23.557-23.127-33.429-36.569-8.124,17.747-16.553,35.79-23.027,54.429-5.634,16.221-9.602,32.875-13.983,49.458l47.754-1.232c6.566-22.009,12.88-44.224,24.137-64.392l-.054-1.139c-.42-.194-1.151-.239-1.398-.555ZM338.98,324.499c4.325-21.146,1.028-42.971-4.255-63.688-2.07,2.674-5.203,4.11-7.552,6.442-18.859,18.723-36.963,38.822-55.303,58.14-2.786,2.934-8.29,5.192-8.732,9.813-.353,3.688,1.773,6.874.085,10.51l75.757-21.217ZM177.836,307.136c-1.113-1.152-10.011-10.809-10.603-10.362-8.836,19.247-16.514,39.163-21.005,59.936l58.88-1.115c-.117-3.49,6.264-13.427,4.927-15.691-8.449-5.448-14.897-13.63-21.785-20.903-3.291-3.475-6.851-8.176-10.414-11.864ZM409.215,311.761l-61.489,16.984c-4.213,25.993-9.519,51.897-20.503,75.906l50.983,25.988c14.82-38.297,27.149-77.74,31.01-118.878ZM226.576,330.094c-8.991,9.322-17.665,33.218-16.25,45.995,2.44,22.026,19.351,20.52,31.886,7.09,9.87-10.574,17.369-37.824,11.037-50.969-6.278-13.032-17.564-11.56-26.673-2.116ZM259.294,368.609l60.434,32.038c10.484-21.743,15.773-45.925,18.484-69.908l-74.008,20.462-4.909,17.409ZM136.218,361.715l-46.899,1.092c-7.206,33.246-9.107,67.724-8.088,101.8l50.448-37.909c-1.142-21.69.763-43.613,4.539-64.984ZM204.22,361.718l-59.837,1.149c-5.053,19.12-5.036,39.097-5.152,58.783,20.621-14.871,39.628-32.05,62.002-44.444l2.987-15.487ZM288.834,391.09c-10.876-5.698-22.015-11.092-33.098-16.411l-6.439,13.506c11.287,25.656,23.102,51.177,32.934,77.421,4.092-4.314,7.96-9.285,11.232-14.242,3.249-4.922,7.632-12.24,10.563-17.42,2.455-4.339,12.79-23.379,13.228-26.85.2-1.584-.411-1.204-1.241-1.761-6.998-4.695-18.14-8.628-25.986-12.753-.704-.37-.883-1.327-1.193-1.489ZM203.214,382.69l-63.497,44.946c-2.727,5.602,6.316,48.123,12.008,50.953,17.195-28.701,36.361-56.195,55.031-83.959.983-2.422-4.265-8.327-3.543-11.941ZM245.213,391.679c-.482-.452-10.686,6.933-10.828,7.578-.222,1.008.928,2.671.875,3.948-.953,22.996.623,46.97,1.006,69.855.176,10.491-.229,21.021-.04,31.504,1.173,1.306,20.414-11.186,22.474-13.003,2.386-2.105,3.482-4.565,5.494-6.499,2.765-2.659,13.775-12.289,14.025-15.027l-33.007-78.356ZM217.154,400.762c-2.738-.516-4.64-2.016-6.433-4.071l-.948,1.027-55.399,85.595c-1.011,6.29,21.306,26.071,28.549,27.085l34.231-109.636ZM231.008,507.362l-1.797-106.691-6.999,2.734-33.01,108.638c6.112,3.766,38.878.351,41.806-4.68ZM374.042,436.814l-48.345-26.019c-10.634,19.662-20.866,38.603-34.04,56.745-1.191,1.64-4.481,3.925-4.971,5.087-1.275,3.023,11.812,27.984,14.038,32.937,4.733,10.529,9.379,21.189,13.51,31.969,2.471,1.83,32.888-46.396,35.159-50.277,7.371-12.593,15.479-27.204,21.541-40.419,1.011-2.205,4.199-8.168,3.108-10.024ZM132.216,433.643l-50.679,38.624c3.199,27.726,7.675,55.811,19.696,81.251,16.093-21.186,30.138-44.078,44.634-66.437-9.562-15.931-12.842-34.996-13.651-53.438ZM306.869,547.174c1.312-1.476,3.473-4.004,3.22-5.893l-28.363-62.682c-13.152,15.091-28.141,27.392-45.343,37.65l.846,86.219c25.933-11.662,47.946-31.828,66.458-53.005.913-1.044,2.422-1.434,3.182-2.289ZM181.216,519.568c-14.27-3.752-24.674-15.128-32.494-26.969l-44.39,65.63c9.543,22.3,27.761,39.348,49.49,50.151l27.394-88.813ZM231.215,517.561c-14.435,5.815-29.708,7.943-44.981,3.985l-25.989,88.879c23.294,9.654,49.124,5.669,71.495-4.935l-.525-87.928Z"/>
  </g>
</svg>