<?xml version="1.0" encoding="UTF-8"?>
<svg id="Loading" xmlns="http://www.w3.org/2000/svg" viewBox="0 0 426.389 151.434">
  <g id="arrows">
    <path d="M358.824,70.302c-.201.165-.637,3.089-1.975,4.811-7.302,9.397-20.516,10.083-31.354,11.018-19.329,1.668-38.768,1.531-58.034,2.335-7.428.31-15.83,3.416-23.797,1.434-4.929-1.226-8.988-5.563-12.999-5.794-3.774-.217-10.451,1.605-14.326,1.742-13.426.475-25.97.565-39.263,1.598-3.1.241-6.791-1.192-9.726-.591-4.533.927-28.933,29.448-37.367,34.631-11.381,6.994-36.291,7.3-49.558,6.299-5.798-.438-25.501-2.246-26.81-8.675-1.781-8.752,9.813-23.384,13.552-31.193-9.132.247-26.224,4.041-34.493.786-8.37-3.295,5.434-14.617,8.814-16.535,3.357-1.905,24.553-5.536,24.635-6.912-6.647-8.409-12.149-17.381-18.246-26.181-3.848-10.538,17.104-13.701,24.087-15.236,11.915-2.62,30.973-5.796,42.861-3.992,8.345,1.266,25.812,14.509,33.136,20.171,3.205,2.478,17.228,15.904,18.825,16.387,2.704.82,13.766-1.222,17.277-1.311,18.586-.473,42.98,2.935,58.068-8.867,30.232-.831,80.037-8.412,106.957,7.795,2.08,1.252,9.335,7.857,9.967,7.932.84.1,2.083-1.045,3.233-1.013,19.667.559,39.11.22,58.668,2.876,2.974,1.938.855,3.308-1.267,4.786-7.376,5.138-44,3.8-54.541,3.299-1.938-.092-6.069-1.809-6.321-1.603ZM155.066,58.492c1.553-1.46-6.598-7.5-7.953-8.541-5.577-4.283-26.512-20.008-31.561-21.48-6.21-1.811-25.416.908-32.518,1.957-9.105,1.345-18.261,3.916-27.365,5.345-1.186,1.097,4.999,9.458,6.091,11.027,5.459,7.843,11.777,15.406,17.678,22.938l75.629-11.245ZM318.624,55.129c-3.932-2.552-9.034-1.952-13.463-2.548,2.446,8.478,4.656,16.867-.188,25.039.522.459,12.133-.332,13.635-.787,6.874-2.083,5.904-17.882.016-21.704ZM274.656,79.987c5.764-.778,15.256.879,20.433-.388,6.955-1.702,7.629-22.25-.066-26.443-3.092-1.685-16.695,1.159-21-.294-.583.871,2.51,6.347,2.97,8.103,1.831,6.986.999,12.658-2.337,19.023ZM351.506,71.493c5.428-7.69-18.147-14.724-22.519-15.829,2.709,7.14,2.929,13.814.158,21.066,1.542,1.581,21.265-3.685,22.361-5.237ZM268.454,79.211c.863-1.243,3.02-10.888,2.803-12.996-1.36-13.221-6.466-12.831-17.798-12.003-1.674.122-8.693.214-8.796,1.595,6.843,7.217,8.106,17.728,1.746,25.715,3.848.579,20.081.516,22.044-2.312ZM169.358,78.806c10.045-.49,20.043-1.66,30.092-2.078,5.312-.221,11.213.303,16.636.02,5.659-.295,18.397-.494,23.136-2.119,6.03-2.067,1.187-13.828-3.393-14.051-7.587.836-16.032,2.407-23.571,2.822-31.459,1.731-56.765,2.629-88.315,6.938-12.133,1.657-30.113,2.524-41.321,5.803-1.469.43-2.823-1.219-2.534,1.865,9.418.992,18.973.684,28.45.367,17.63-.589,37.15-3.253,54.612-3.105,3.567.03,7.679-.583,6.208,3.537ZM72.356,73.426c-1.418-1.5-30.982,3.584-32.816,9.052,7.003-.302,13.958-1.46,20.929-2.098,3.234-.296,9.331,1.785,12.129-2.014.512-.695-.06-4.747-.242-4.939ZM158.868,83.912c-5.877-.348-11.992,1.309-17.766,1.467-3.143.086-6.763-.974-10.74-.802-16.965.736-34.535,4.818-51.315.535-2.037.297-18.52,28.753-18.273,30.752.18,1.456,3.31,2.187,4.595,2.41,12.761,2.211,42.733,2.199,55.171-1.434,12.5-3.651,23.287-20.3,32.961-28.888,1.661-1.475,4.345-1.873,5.366-4.039Z"/>
  </g>
</svg>