<?xml version="1.0" encoding="UTF-8"?>
<svg id="dartboard" xmlns="http://www.w3.org/2000/svg" viewBox="0 0 24 24">
  <defs>
    <style>
      .cls-1 {
        fill: #fff;
        stroke-width: 0px;
      }
    </style>
  </defs>
  <path class="cls-1" d="M22.56,8.57c-.36-1.12-.9-2.17-1.58-3.1-.69-.94-1.51-1.76-2.45-2.45-.93-.68-1.98-1.22-3.1-1.58-1.08-.35-2.23-.54-3.43-.54s-2.35.19-3.43.54c-1.12.36-2.17.9-3.1,1.58-.94.69-1.76,1.51-2.45,2.45-.68.93-1.22,1.98-1.58,3.1-.35,1.08-.54,2.23-.54,3.43s.19,2.35.54,3.43c.36,1.12.9,2.17,1.58,3.1.69.94,1.51,1.76,2.45,2.45.93.68,1.98,1.22,3.1,1.58,1.08.35,2.23.54,3.43.54s2.35-.19,3.43-.54c1.12-.36,2.17-.9,3.1-1.58.94-.69,1.76-1.51,2.45-2.45.68-.93,1.22-1.98,1.58-3.1.35-1.08.54-2.23.54-3.43s-.19-2.35-.54-3.43ZM20.79,9.14l-8.25,2.68c-.02-.06-.05-.11-.08-.16l7.02-5.11c.56.78,1.01,1.64,1.31,2.58ZM17.44,4.52l-5.11,7.02s-.1-.06-.16-.08l2.68-8.25c.94.3,1.8.75,2.58,1.31ZM12,2.76v8.66c-.06,0-.12.02-.18.04l-2.68-8.25c.9-.29,1.86-.45,2.86-.45ZM6.56,4.52l5.11,7.02s-.09.08-.12.12l-7.02-5.11c.57-.78,1.26-1.47,2.04-2.04ZM3.21,9.14l8.25,2.68c-.02.06-.04.11-.04.18H2.76c0-1,.16-1.96.45-2.86ZM3.21,14.86l8.25-2.68c.02.06.05.11.08.16l-7.02,5.11c-.56-.78-1.01-1.64-1.31-2.58ZM6.56,19.48l5.11-7.02s.1.06.16.08l-2.68,8.25c-.94-.3-1.8-.75-2.58-1.31ZM12,21.24v-8.66c.06,0,.12-.02.18-.04l2.68,8.25c-.9.29-1.86.45-2.86.45ZM17.44,19.48l-5.11-7.02s.09-.08.12-.12l7.02,5.11c-.57.78-1.26,1.47-2.04,2.04ZM20.79,14.86l-8.25-2.68c.02-.06.04-.11.04-.18h8.66c0,1-.16,1.96-.45,2.86Z"/>
</svg>